<?xml version="1.0" standalone="no"?>
<!DOCTYPE svg PUBLIC "-//W3C//DTD SVG 20010904//EN"
 "http://www.w3.org/TR/2001/REC-SVG-20010904/DTD/svg10.dtd">
<svg version="1.0" xmlns="http://www.w3.org/2000/svg"
 width="1024.000000pt" height="512.000000pt" viewBox="0 0 626.000000 313.000000"
 preserveAspectRatio="xMidYMid meet">

<g transform="translate(0.000000,313.000000) scale(0.100000,-0.100000)"
fill="#ffffff" stroke="transparent">
<path d="M225 3116 c-269 -85 -301 -445 -51 -579 l41 -22 1035 0 c1176 0 1069
-8 1162 87 81 83 110 211 71 323 -24 70 -110 156 -186 184 -57 21 -62 21
-1045 20 -763 0 -996 -3 -1027 -13z"/>
<path d="M4545 3123 c-65 -17 -116 -48 -137 -82 l-23 -36 -3 -562 -3 -563
-517 0 c-284 -1 -536 -5 -560 -9 -60 -12 -107 -59 -123 -125 -17 -66 -17 -296
0 -362 16 -66 63 -113 123 -125 24 -4 276 -8 560 -9 l517 0 3 -563 3 -563 25
-37 c46 -68 133 -91 319 -85 150 5 210 26 251 85 l25 37 3 562 3 563 563 3
562 3 37 25 c65 44 86 117 87 289 0 170 -23 240 -97 289 -25 16 -75 17 -590
20 l-562 3 -3 563 -3 562 -25 37 c-43 63 -100 81 -270 83 -80 2 -154 0 -165
-3z"/>
<path d="M259 1870 c-153 -26 -254 -150 -254 -310 0 -63 5 -84 30 -134 33 -65
83 -113 154 -148 l46 -23 1015 0 1015 0 58 30 c236 119 236 441 0 560 l-58 30
-980 1 c-539 1 -1001 -2 -1026 -6z"/>
<path d="M206 605 c-75 -26 -133 -81 -177 -165 -19 -36 -24 -60 -24 -125 0
-69 4 -88 29 -138 34 -67 81 -113 151 -148 l50 -24 1002 -3 1001 -2 59 21 c76
28 162 113 186 184 39 112 10 240 -71 323 -93 95 12 87 -1147 89 -849 2 -1026
0 -1059 -12z"/>
</g>
</svg>
